<?xml version="1.0" encoding="utf-8"?>
<!-- Generator: Adobe Illustrator 27.5.0, SVG Export Plug-In . SVG Version: 6.00 Build 0)  -->
<svg version="1.1" xmlns="http://www.w3.org/2000/svg" xmlns:xlink="http://www.w3.org/1999/xlink" x="0px" y="0px"
	 viewBox="0 0 750 500" style="enable-background:new 0 0 750 500;" xml:space="preserve">
<g id="BACKGROUND">
</g>
<g id="OBJECTS">
	<g>
		<g>
			<g>
				<path style="fill:#B57159;" d="M508.829,398.949c0.902,0.499,8.26,4.618,10.808,7.432c2.718,3.005-0.212,4.863-3.143,4.449
					c-2.93-0.403-11.572-4.491-11.572-4.491s7.304,5.553,8.961,7.687c1.656,2.134-1.115,6.211-13.292-0.966
					c0,0,2.771,2.994,4.958,5.001c2.198,2.007,0.361,5.001-5.404,2.007c-2.644-1.38-6.699-3.78-12.411-7.294
					c-6.901-4.257-16.201-10.139-28.315-17.836c-22.126-14.046-56.397-67.046-61.96-82.727l40.004-6.285
					c0,0,6.285,14.864,16.414,31.15c5.829,9.364,12.921,19.206,20.82,26.956c21.637,21.244,30.694,21.266,32.36,20.013
					c1.667-1.263,6.338-5.245,8.472-3.504c2.123,1.741-0.839,7.273-5.064,10.012c0,0,7.22,3.312,10.734,4.99
					c3.525,1.667,2.187,4.268-1.741,5.521C515.784,402.219,509.647,399.342,508.829,398.949z"/>
				<path style="opacity:0.17;fill:#84072A;" d="M487.734,412.773c-6.901-4.257-16.201-10.139-28.315-17.836
					c-22.126-14.046-56.397-67.046-61.96-82.727l40.004-6.285c0,0,6.285,14.864,16.414,31.15c-1.041,1.147-1.954,2.495-2.58,4.385
					c-0.679,3.992,0.616,8.026,1.9,11.87c4.427,13.314,8.95,26.829,16.891,38.401c4.3,6.253,9.513,11.827,14.545,17.507
					C485.674,410.416,486.704,411.594,487.734,412.773z"/>
				<path style="fill:#99398B;" d="M453.993,323.313c0.963,2.699,0.367,5.695-1.617,7.757c-6.649,6.925-23.721,22.035-47.41,23.784
					c-3.308,0.251-6.379-1.756-7.521-4.877c-0.748-2.016-1.648-4.562-2.626-7.49c-7.034-21.206-17.601-62.844,3.643-72.985
					c18.532-8.852,41.205,20.486,52.419,46.014C452.051,318.169,453.085,320.782,453.993,323.313z"/>
			</g>
			<g>
				<g>
					<path style="fill:#B2479E;" d="M453.059,427.498c0,0-44.23,14.577-94.756,10.617c-16.191-1.274-33.029-4.438-49.262-10.617
						c0,0-0.563-42.691-0.51-84.171c0.011-9.162,0.34-18.282,1.147-26.861c0.202-2.357,0.467-4.671,0.743-6.922
						c0.35-2.792,0.764-5.5,1.232-8.111c1.04-5.723,2.368-10.978,4.045-15.607c0.733-2.049,2.24-4.141,4.236-6.2
						c4.48-4.618,11.456-8.993,17.73-12.04c1.253-0.616,2.474-1.178,3.652-1.667c2.962-1.274,5.606-2.145,7.485-2.495
						c7.984-1.465,39.134,2.569,46.757,3.62c0.892,0.117,1.9,0.34,2.983,0.658c1.932,0.552,4.13,1.38,6.445,2.421
						c8.791,3.949,19.333,10.946,24.122,17.263c1.433,1.89,3.334,7.124,5.478,14.619c0.021,0,0.021,0,0.021,0
						c0.69,2.431,1.412,5.107,2.155,7.984c0.446,1.677,0.892,3.44,1.338,5.245c1.816,7.432,3.737,15.893,5.627,24.844
						c3.971,18.877,6.041,39.898,7.379,58.085c0.191,2.601,0.372,5.139,0.541,7.612
						C452.199,414.004,452.634,421.426,453.059,427.498z"/>
					<path style="opacity:0.33;fill:#491831;" d="M404.981,270.119c-0.564,7.126-6.375,21.696-26.85,20.311
						c-24.068-1.632-38.849-22.142-38.849-22.142c0.657-0.834,1.327-1.62,2.031-2.372c2.97-1.268,5.612-2.137,7.49-2.489
						c7.983-1.468,39.131,2.571,46.75,3.616C398.054,267.384,401.365,268.499,404.981,270.119z"/>
					<path style="opacity:0.17;fill:#0E0393;" d="M453.059,427.498c0,0-44.23,14.577-94.756,10.617
						c-16.191-1.274-33.029-4.438-49.262-10.617c0,0-0.563-42.691-0.51-84.171c0.011-9.162,0.34-18.282,1.147-26.861
						c0.202-2.357,0.467-4.671,0.743-6.922c0.35-2.792,0.764-5.5,1.232-8.111c1.04-5.723,2.368-10.978,4.045-15.607
						c0.733-2.049,2.24-4.141,4.236-6.2c4.48-4.618,11.456-8.993,17.73-12.04c1.253-0.616,2.474-1.178,3.652-1.667
						c2.962-1.274,5.606-2.145,7.485-2.495c7.984-1.465,39.134,2.569,46.757,3.62c0.892,0.117,1.9,0.34,2.983,0.658
						c-0.414,3.058-1.752,6.137-4.066,9.545c-5.192,7.644-16.233,11.541-19.503,20.331c-1.263,3.408-0.998,7.177-0.595,10.787
						c2.229,20.193,8.133,40.334,19.885,56.907c11.742,16.562,29.812,29.228,49.974,31.681c2.283,0.287,4.714,0.478,6.869,1.21
						c0.191,2.601,0.372,5.139,0.541,7.612C452.199,414.004,452.634,421.426,453.059,427.498z"/>
				</g>
				<g>
					<path style="fill:#FFD488;" d="M455.053,422.251c0.2,3.111-1.82,5.917-4.825,6.715c-1.315,0.352-2.865,0.751-4.637,1.186
						c-11.036,2.712-30.396,6.715-53.09,8.136c-10.825,0.669-22.401,0.751-34.2-0.176c-9.768-17.646-39.905-80.985-38.403-159.305
						c0.023-1.021,0.469-1.984,1.209-2.677c1.444-1.35,3.064-2.665,4.802-3.921c1.867-1.35,3.851-2.63,5.87-3.816
						c0.481-0.294,0.974-0.575,1.456-0.845c2.172-1.209,4.896,0.023,5.424,2.454c7.126,32.239,34.787,116.253,110.688,134.744
						c2.771,0.669,4.79,3.053,4.966,5.905C454.584,414.796,454.83,418.694,455.053,422.251z"/>
					<path style="opacity:0.35;fill:#E29C50;" d="M445.591,430.152c-16.296,4.003-50.754,10.825-87.29,7.96
						c-9.768-17.646-39.905-80.985-38.403-159.305c0.023-1.021,0.469-1.984,1.209-2.677c2.982-2.794,6.774-5.448,10.672-7.737
						c3.029,24.549,16.437,85.012,55.673,125.599C403.654,410.745,424.669,422.251,445.591,430.152z"/>
					<path style="opacity:0.35;fill:#E29C50;" d="M392.501,438.288c-10.825,0.669-22.401,0.751-34.2-0.176
						c-9.768-17.646-39.905-80.985-38.403-159.305c0.023-1.021,0.469-1.984,1.209-2.677c1.444-1.35,3.064-2.665,4.802-3.921
						C329.267,297.568,342.874,371.626,392.501,438.288z"/>
				</g>
			</g>
			<g>
				<path style="fill:#B57159;" d="M413.341,384.893c0.255,2.463-11.19,8.483-14.566,9.576c-1.773,0.573-11.031,6.71-22.349,12.719
					c-10.277,5.478-22.264,10.851-31.829,11.838c-20.098,2.091-35.025-9.003-52.639-87.101l33.634-12.135
					c3.557,18.166,6.476,38.603,11.827,51.205c1.879,4.427,4.066,7.888,6.678,9.937c10.065,7.91,34.112-11.095,36.968-12.39
					c2.845-1.285,1.359-12.209,5.213-12.231c3.854-0.021,4.024,9.874,3.61,10.872c-0.403,0.998,12.22-8.133,14.184-4.735
					c1.964,3.408-9.714,10.829-9.714,10.829s16.254-7.761,16.828-4.587c0.563,3.1-11.222,10.543-11.795,10.904
					c0.669-0.212,14.184-4.618,14.428-2.219c0.233,2.389-11.626,7.411-12.369,7.729
					C402.161,384.946,413.097,382.504,413.341,384.893z"/>
				<path style="opacity:0.17;fill:#C6123D;" d="M376.426,407.188c-10.277,5.478-22.264,10.851-31.829,11.838
					c-20.098,2.091-35.025-9.003-52.639-87.101l33.634-12.135c3.557,18.166,6.476,38.603,11.827,51.205
					c-5.627,2.41-11.626,4.831-13.122,10.84c-0.849,2.92-0.34,6.083,0.743,8.929c3.302,8.685,11.625,14.8,20.586,17.253
					c8.961,2.453,18.516,1.667,27.625-0.191C374.303,407.613,375.364,407.379,376.426,407.188z"/>
				<path style="fill:#99398B;" d="M351.317,351.895c0.053,2.867-1.455,5.521-3.992,6.848c-6.264,3.281-19.302,8.992-34.93,9.428
					c-5.585,0.17-11.509-0.35-17.571-1.89c-3.217-0.807-5.5-3.684-5.595-7.007c-0.064-2.155-0.117-4.852-0.117-7.941
					c0.053-22.338,3.217-65.177,26.585-68.065c0.414-0.053,0.828-0.085,1.232-0.106c19.641-0.998,31.415,33.146,33.91,60.357
					C351.105,346.406,351.253,349.209,351.317,351.895z"/>
				<path style="opacity:0.17;fill:#0E0393;" d="M309.603,311.604c-1.274,18.888-0.329,37.902,2.792,56.567
					c-5.585,0.17-11.509-0.35-17.571-1.89c-3.217-0.807-5.5-3.684-5.595-7.007c-0.064-2.155-0.117-4.852-0.117-7.941
					c0.053-22.338,3.217-65.177,26.585-68.065c0.414-0.053,0.828-0.085,1.232-0.106c-0.541,0.839-1.083,1.752-1.592,2.76
					C311.334,293.799,310.198,302.792,309.603,311.604z"/>
			</g>
		</g>
		<g>
			<g>
				<path style="fill:#B57159;" d="M397.203,270.421c-0.871,2.644-3.811,8.812-17.921,9.141c-3.068,0.074-6.275-0.499-9.428-1.465
					c-11.328-3.482-21.892-12.135-22.55-14.46c-0.828-2.983,0-24.621,0-24.621c16.732,13.505,49.029,9.98,49.029,9.98
					s0.138,1.476,0.318,3.652C397.108,258.254,397.84,268.521,397.203,270.421z"/>
				<path style="opacity:0.17;fill:#84072A;" d="M366.743,258.488c-1.423,1.423-1.21,3.748-0.828,5.723
					c0.924,4.725,2.23,9.375,3.939,13.887c-11.328-3.482-21.892-12.135-22.55-14.46c-0.828-2.983,0-24.621,0-24.621
					c16.732,13.505,49.029,9.98,49.029,9.98s0.138,1.476,0.318,3.652c-8.196,2.368-17.624,3.111-26.213,4.438
					C369.111,257.288,367.688,257.543,366.743,258.488z"/>
			</g>
			<g>
				<path style="fill:#5B3546;" d="M420.592,187.089c0,0-3.121,1.868-9.046,3.217c-5.054,1.168-12.156,1.954-21.085,0.871
					c-19.376-2.346-31.999-11.148-35.811-9.205c-3.811,1.953-4.99,34.452-11.445,32.806c-6.455-1.656-11.158,3.313-11.158,3.313
					s-7.039-24.568-6.752-39.24c0.297-14.673-6.158-27.88,24.366-37.86c10.458-3.419,21.701-4.799,32.403-4.629
					c20.544,0.287,39.06,6.243,45.961,14.269C438.535,162.829,433.311,185.603,420.592,187.089z"/>
				<path style="opacity:0.18;fill:#FF5C7B;" d="M416.131,166.327c0.955,2.891,1.255,6.544,3.98,7.9
					c2.174,1.082,4.953-0.069,6.384-2.031c1.43-1.962,1.785-4.502,1.838-6.93c0.081-3.689-0.515-7.588-2.818-10.471
					c-3.076-3.852-20.039-11.023-24.616-7.313C395.536,151.83,414.091,160.152,416.131,166.327z"/>
				<path style="opacity:0.28;fill:#280249;" d="M411.547,190.306c-5.054,1.168-12.156,1.954-21.085,0.871
					c-19.376-2.346-31.999-11.148-35.811-9.205c-3.811,1.953-4.99,34.452-11.445,32.806c-6.455-1.656-11.158,3.313-11.158,3.313
					s-7.039-24.568-6.752-39.24c0.297-14.673-6.158-27.88,24.366-37.86c10.458-3.419,21.701-4.799,32.403-4.629
					c-7.347,1.518-15.416,4.618-17.274,12.602c-1.847,7.941,2.644,16.042,8.292,21.913c8.302,8.621,19.514,14.407,31.352,16.191
					c2.187,0.329,4.565,0.594,6.179,2.102C410.973,189.51,411.281,189.892,411.547,190.306z"/>
				<g>
					<g>
						<path style="fill:#5B3546;" d="M349.958,255.451c-1.784,1.688-4.088,2.962-6.604,3.663c-1.338,0.372-2.739,0.584-4.151,0.595
							c-2.145,0.021-4.332-0.393-6.402-1.359c-5.266-2.431-9.789-8.355-11.02-19.333c-2.644-23.474,5.372-42.16,5.372-42.16
							s11.647,19.461,18.75,36.119C350.308,243.337,352.963,252.617,349.958,255.451z"/>
						<path style="fill:#5B3546;" d="M341.581,275.071c-0.68,0.159-1.412,0.276-2.198,0.34h-0.064
							c-2.081,0.17-3.896-0.053-5.457-0.563c-8.239-2.707-9.035-13.409-1.062-16.499c1.38-0.531,3.015-0.839,4.916-0.839
							c0.796,0,1.561,0.085,2.293,0.244c1.231,0.265,2.346,0.733,3.344,1.359C349.565,263.042,350.648,272.958,341.581,275.071z"/>
						<path style="fill:#5B3546;" d="M343.545,291.283c-1.147,0.51-2.527,0.849-4.162,0.987c-0.542,0.043-1.062,0.064-1.561,0.064
							c-2.389-0.032-4.385-0.605-5.988-1.529c-6.572-3.822-6.285-13.653,2.028-15.957c1.136-0.319,2.421-0.488,3.854-0.488
							c0.913,0,1.773,0.106,2.59,0.308c0.446,0.106,0.86,0.244,1.274,0.404C348.727,277.853,351.105,287.982,343.545,291.283z"/>
						<path style="fill:#5B3546;" d="M342.855,304.82c-0.892,0.404-1.932,0.711-3.121,0.902c-1.285,0.212-2.474,0.244-3.567,0.138
							c-0.754-0.064-1.454-0.212-2.113-0.414c-7.082-2.145-8.493-11.063-2.219-14.641c1.338-0.775,3.015-1.295,5.075-1.454
							c0.234-0.021,0.478-0.032,0.701-0.032c2.304-0.021,4.342,0.743,5.935,1.964C348.164,294.787,349.183,302.038,342.855,304.82z"
							/>
						<path style="fill:#5B3546;" d="M344.968,318.399c-0.977,0.552-2.187,0.966-3.652,1.2c-0.138,0.021-0.265,0.043-0.393,0.053
							c-1.348,0.191-2.58,0.17-3.684-0.011c0,0,0-0.011-0.011,0c-7.825-1.306-9.64-10.702-3.174-14.195
							c0.414-0.223,0.86-0.425,1.348-0.595c0.945-0.34,2.028-0.573,3.249-0.669c1.539-0.117,2.952,0.127,4.204,0.637
							C348.62,307.188,350.892,315.139,344.968,318.399z"/>
						<path style="fill:#5B3546;" d="M352.888,346.438c0,0-1.21,0.181-3.026,0.202c-4.841,0.074-13.993-0.892-15.968-9.003
							c-2.134-8.727-0.244-15.267,3.334-17.996c0.011-0.011,0.011,0,0.011,0c0.722-0.563,1.508-0.956,2.346-1.179
							c0.319-0.095,0.648-0.149,0.977-0.191c1.72-0.202,3.185-0.138,4.406,0.127c6.253,1.391,6.498,8.355,5.277,15.713
							C348.78,342.924,352.888,346.438,352.888,346.438z"/>
					</g>
					<path style="opacity:0.28;fill:#280249;" d="M349.862,346.64c-4.841,0.074-13.993-0.892-15.968-9.003
						c-2.134-8.727-0.244-15.267,3.334-17.996c-7.825-1.306-9.64-10.702-3.174-14.195c-7.082-2.145-8.493-11.063-2.219-14.641
						c-6.572-3.822-6.285-13.653,2.028-15.957c-8.239-2.707-9.035-13.409-1.062-16.499c-5.266-2.431-9.789-8.355-11.02-19.333
						c-2.644-23.474,5.372-42.16,5.372-42.16s11.647,19.461,18.75,36.119c-2.697,2.739-6.03,5.054-7.761,8.823
						c-2.378,5.192-2.102,12.029,1.869,15.957c0.287,0.287,0.605,0.573,0.945,0.828c-0.658,0.287-1.242,0.669-1.752,1.125
						c-4.257,3.684-3.727,12.199,1.656,14.63c-0.191,0.106-0.371,0.212-0.552,0.329c-0.35,0.223-0.679,0.478-0.987,0.743
						c-3.78,3.323-4.48,9.746-1.709,13.908c0.52,0.786,1.168,1.497,1.943,2.081c-0.616,0.244-1.189,0.563-1.731,0.934
						c-2.495,1.731-4.088,4.746-4.003,7.793c0.053,1.688,0.626,3.323,1.582,4.725c0.223,0.35,0.478,0.69,0.764,1.009
						c1.051,1.189,2.399,2.123,3.918,2.622c-2.983,2.325-2.845,7.188-0.499,9.98c0.382,0.467,0.839,0.871,1.338,1.189
						c0.478,0.319,0.998,0.563,1.571,0.711C337.207,329.079,340.912,341.894,349.862,346.64z"/>
				</g>
				<g>
					<g>
						<path style="fill:#5B3546;" d="M431.273,245.217c-1.221,2.835-2.845,4.937-4.693,6.349c-2.803,2.176-6.115,2.792-9.29,2.113
							c0,0,0,0,0-0.011c-2.325-0.488-4.576-1.678-6.498-3.461c-1.178-1.104-2.24-2.421-3.111-3.949
							c-5.489-9.587,10.914-50.664,10.914-50.664s10.139,21.053,12.942,36.745C432.473,237.54,432.6,242.159,431.273,245.217z"/>
						<path style="fill:#5B3546;" d="M422.312,265.325c-0.68,0.159-1.412,0.276-2.198,0.34c-0.626,0.053-1.232,0.064-1.805,0.053
							c-1.37-0.032-2.612-0.255-3.716-0.616c-7.145-2.346-8.695-10.691-3.801-14.896c1.731-1.486,4.268-2.452,7.655-2.452
							c0.276,0,0.563,0.011,0.828,0.032c3.09,0.234,5.616,1.731,7.305,3.78C430.392,256.173,429.978,263.531,422.312,265.325z"/>
						<path style="fill:#5B3546;" d="M424.276,281.526c-1.147,0.51-2.527,0.849-4.162,0.987c-0.276,0.021-0.542,0.042-0.807,0.042
							c-2.729,0.106-4.99-0.488-6.752-1.508c-6.572-3.833-6.285-13.643,2.038-15.947c1.136-0.319,2.421-0.488,3.854-0.488
							c0.255,0,0.51,0.011,0.764,0.032c1.115,0.074,2.145,0.308,3.1,0.68C429.457,268.107,431.836,278.225,424.276,281.526z"/>
						<path style="fill:#5B3546;" d="M423.576,295.074c-0.892,0.393-1.932,0.701-3.121,0.892c-0.382,0.064-0.764,0.117-1.125,0.138
							c-1.699,0.159-3.217-0.011-4.544-0.414c-7.081-2.134-8.493-11.063-2.229-14.641c1.232-0.711,2.771-1.21,4.629-1.401
							c0.149-0.032,0.297-0.042,0.446-0.053c2.601-0.202,4.894,0.595,6.646,1.932C428.905,285.041,429.914,292.281,423.576,295.074z
							"/>
						<path style="fill:#5B3546;" d="M425.699,308.642c-0.435,0.255-0.924,0.467-1.455,0.658c-0.658,0.234-1.391,0.425-2.208,0.552
							c-1.497,0.244-2.856,0.234-4.066,0.032c0,0,0,0-0.011,0c-7.825-1.295-9.651-10.702-3.174-14.195
							c0.913-0.488,1.996-0.871,3.249-1.083c0.425-0.074,0.881-0.138,1.348-0.17c1.529-0.117,2.941,0.128,4.194,0.637
							C429.351,297.431,431.623,305.372,425.699,308.642z"/>
						<path style="fill:#5B3546;" d="M433.619,336.692c0,0-1.189,0.17-2.973,0.191c-4.831,0.095-14.035-0.86-16.031-9.003
							c-2.123-8.716-0.234-15.267,3.344-17.996c0.011,0,0.011,0,0.011,0c0.998-0.764,2.123-1.232,3.323-1.37
							c0.849-0.095,1.635-0.127,2.357-0.106c0.743,0.021,1.433,0.106,2.049,0.234c6.243,1.391,6.497,8.355,5.277,15.724
							C429.51,333.167,433.619,336.692,433.619,336.692z"/>
					</g>
					<path style="opacity:0.28;fill:#280249;" d="M430.646,336.883c-4.831,0.095-14.035-0.86-16.031-9.003
						c-2.123-8.716-0.234-15.267,3.344-17.996c-7.825-1.295-9.651-10.702-3.174-14.195c-7.081-2.134-8.493-11.063-2.229-14.641
						c-6.572-3.833-6.285-13.643,2.038-15.947c-7.145-2.346-8.695-10.691-3.801-14.896c-1.178-1.104-2.24-2.421-3.111-3.949
						c-5.489-9.587,10.914-50.664,10.914-50.664s10.139,21.053,12.942,36.745c-3.811,5.393-9.088,9.672-12.263,15.448
						c-0.255,0.457-0.499,0.924-0.722,1.402c-0.658,1.391-1.083,2.93-1.263,4.48c0,0.011,0,0.011,0,0.011
						c-0.414,3.684,0.616,7.474,3.578,9.545c-0.605,0.425-1.157,0.892-1.656,1.423c-0.329,0.34-0.626,0.69-0.902,1.072
						c-2.888,3.896-3.334,9.608-1.125,13.929c0.542,1.072,1.242,2.06,2.123,2.909c0.096,0.096,0.191,0.191,0.287,0.276
						c-3.482,2.686-3.939,8.207-1.561,11.774c0.361,0.552,0.796,1.051,1.295,1.497c0.255,0.234,0.541,0.446,0.839,0.637
						c-3.058-0.127-3.334,4.788-1.306,7.082c1.454,1.635,3.504,2.898,4.788,4.586c0.234,0.287,0.425,0.584,0.594,0.892
						c0.234,0.425,0.414,0.871,0.52,1.359c0.637,2.76-1.21,5.393-2.219,8.037C419.923,325.587,423.926,334.112,430.646,336.883z"/>
				</g>
			</g>
			<g>
				<path style="fill:#B57159;" d="M420.787,209.277c0,0,7.631-2.935,8.61,3.131c0.978,6.066-1.761,16.183-8.218,15.135
					L420.787,209.277z"/>
				<path style="fill:#B57159;" d="M421.941,226.849c-0.68,3.758-1.752,7.145-3.344,9.821c-3.992,6.689-10.309,10.5-17.73,12.496
					c-11.031,2.973-24.504,1.932-36.437,0.414c-19.96-2.537-21.329-18.59-21.329-18.59c-10.935,2.962-15.065-10.957-11.933-16.223
					c3.132-5.255,9.598-3.143,9.598-3.143c3.121-25.438,13.494-39.728,13.494-39.728c18.006,20.745,66.334,15.193,66.334,15.193
					s0.149,0.764,0.361,2.123c0.616,3.843,1.826,12.443,2.028,21.648C423.098,216.275,422.854,221.881,421.941,226.849z"/>
				<path style="opacity:0.17;fill:#84072A;" d="M393.222,248.242c2.442,0.372,5.128,0.499,7.644,0.924
					c-11.031,2.973-24.504,1.932-36.437,0.414c-19.96-2.537-21.329-18.59-21.329-18.59c-10.935,2.962-15.065-10.957-11.933-16.223
					c3.132-5.255,9.598-3.143,9.598-3.143c3.121-25.438,13.494-39.728,13.494-39.728c18.006,20.745,66.334,15.193,66.334,15.193
					s0.149,0.764,0.361,2.123c-9.141,5.245-21.52,6.604-33.847,4.491c-4.077-0.701-8.525-1.752-12.146,0.244
					c-2.835,1.55-4.459,4.64-5.563,7.676c-3.419,9.385-3.355,20.151,0.945,29.165C374.642,239.802,383.338,246.777,393.222,248.242z
					"/>
				<path style="opacity:0.5;fill:#962651;" d="M336.256,217.691c4.873-1.874,7.24,8.805,3.522,9.784
					C336.061,228.452,333.713,218.669,336.256,217.691z"/>
				<g>
					<path style="fill:#FFD488;" d="M337.543,251.085c-3.88,0.001-8.203-1.941-10.189-7.503
						c-4.233-11.852,7.684-19.337,7.805-19.411c0.636-0.391,1.465-0.191,1.854,0.443c0.391,0.634,0.194,1.465-0.44,1.856
						c-0.417,0.258-10.168,6.428-6.677,16.204c1.464,4.1,4.793,6.21,8.9,5.622c3.532-0.499,7.241-3.133,7.496-7.204
						c0.046-0.745,0.676-1.328,1.432-1.263c0.744,0.046,1.31,0.687,1.263,1.431c-0.345,5.514-5.198,9.059-9.814,9.71
						C338.646,251.046,338.098,251.085,337.543,251.085z"/>
				</g>
				<g>
					<path style="fill:#FFD488;" d="M419.063,246.259c-2.877,0-5.616-1.328-6.635-2.692c-0.446-0.597-0.324-1.443,0.274-1.889
						c0.598-0.445,1.443-0.322,1.889,0.273c0.389,0.52,2.514,1.799,5.006,1.586c2.314-0.194,4.153-1.593,5.467-4.155
						c3.466-6.759-1.739-13.132-1.792-13.195c-0.477-0.573-0.4-1.424,0.173-1.902c0.573-0.476,1.425-0.399,1.902,0.173
						c0.263,0.315,6.393,7.826,2.121,16.156c-2.202,4.295-5.373,5.424-7.645,5.615C419.57,246.249,419.316,246.259,419.063,246.259z
						"/>
				</g>
			</g>
			<g>
				<g>
					<path style="fill:#562E3A;" d="M366.39,203.309c0,2.324-1.139,4.207-2.544,4.207s-2.544-1.883-2.544-4.207
						c0-2.323,1.139-4.207,2.544-4.207S366.39,200.985,366.39,203.309z"/>
					<path style="fill:#562E3A;" d="M418.597,203.309c0,2.324-1.139,4.207-2.544,4.207c-1.405,0-2.544-1.883-2.544-4.207
						c0-2.323,1.139-4.207,2.544-4.207C417.458,199.102,418.597,200.985,418.597,203.309z"/>
				</g>
				<path style="fill:#9B3A53;" d="M398.285,192.253c0,0,4.109,16.436,5.087,18.785c0.978,2.348,4.305,2.152,4.305,2.152
					s-2.152,6.066-12.327,6.262C395.35,219.452,392.219,205.852,398.285,192.253z"/>
				<path style="fill:#87254A;" d="M390.458,221.995c0,0-0.505,4.567-3.146,8.148c-1.726,2.348-4.367,4.262-8.394,4.18
					c-3.381-0.059-5.565-1.714-6.962-3.945c-2.806-4.45-2.501-11.189-2.63-12.104C369.325,218.274,383.613,218.673,390.458,221.995z
					"/>
				<path style="fill:#FE86AA;" d="M387.311,230.143c-1.726,2.348-4.367,4.262-8.394,4.18c-3.381-0.059-5.565-1.714-6.962-3.945
					C375.77,228.957,381.981,227.502,387.311,230.143z"/>
				<g>
					<path style="fill:#5B3546;" d="M355.463,188.538c0.007,0.016,0.014,0.033,0.021,0.049c0.414,0.977,1.527,1.518,2.612,1.281
						c1.397-0.306,3.463-0.733,5.283-1.01c1.072-0.163,1.864-1.027,1.892-2.054c0.004-0.153,0.005-0.311,0-0.471
						c-0.035-1.278-1.245-2.238-2.582-2.058c-1.471,0.198-3.601,0.612-5.974,1.475C355.548,186.174,355.003,187.438,355.463,188.538
						z"/>
					<path style="fill:#5B3546;" d="M418.956,188.56c-0.004,0.016-0.009,0.031-0.013,0.047c-0.265,0.93-1.214,1.534-2.225,1.429
						c-1.304-0.135-3.228-0.312-4.912-0.377c-0.992-0.038-1.809-0.742-1.952-1.671c-0.021-0.139-0.04-0.282-0.054-0.428
						c-0.114-1.164,0.875-2.159,2.109-2.132c1.358,0.03,3.339,0.188,5.591,0.729C418.608,186.423,419.247,187.515,418.956,188.56z"
						/>
				</g>
				<g style="opacity:0.35;">
					<ellipse style="fill:#962651;" cx="354.65" cy="219.452" rx="9.197" ry="8.61"/>
					<path style="fill:#962651;" d="M421.944,226.852c-4.374-0.354-7.809-3.8-7.809-7.986c0-4.429,3.833-8.019,8.571-8.019
						c0.088,0,0.188,0,0.276,0.011C423.093,216.271,422.85,221.882,421.944,226.852z"/>
				</g>
			</g>
		</g>
	</g>
	<g>
		<g>
			<g>
				<path style="fill:#E0A26E;" d="M272.251,342.505c-2.19,1.62-15.67,19.4-30.19,31.64c-4.68,3.95-9.46,7.32-14.01,9.38
					c-18.65,8.47-36.57,2.59-78.59-66.85l28.44-22.47c9.53,16.8,19.17,36.14,28.62,46.33c2.96,3.19,5.9,5.48,8.81,6.52
					c12.22,4.38,29.24-21.63,31.57-23.78c2.33-2.16-2.62-12.18,1.08-13.44c3.7-1.26,7.04,8.2,6.97,9.29
					c-0.07,1.09,9.13-11.75,12.12-9.1c2.89,2.56-5.34,12.86-5.84,13.49c0.7-0.67,13.14-12.57,14.67-9.78
					c1.58,2.87-7.85,14.29-7.85,14.29s12.14-9.07,13.18-6.78c1,2.21-8.82,10.88-9.4,11.4c0.6-0.36,10.35-6.24,11.35-4.03
					C284.221,330.905,275.141,340.375,272.251,342.505z"/>
				<path style="opacity:0.17;fill:#C6123D;" d="M242.061,374.145c-4.68,3.95-9.46,7.32-14.01,9.38
					c-18.65,8.47-36.57,2.59-78.59-66.85l28.44-22.47c9.53,16.8,19.17,36.14,28.62,46.33c0.83,7.83,2.74,15.52,5.34,22.17
					c4.88,12.48,17.53,15.54,29.56,11.65C241.631,374.285,241.851,374.215,242.061,374.145z"/>
				<path style="fill:#3F3882;" d="M206.472,317.03c0.977,2.735,0.372,5.773-1.64,7.863c-6.74,7.02-24.047,22.337-48.061,24.11
					c-3.353,0.254-6.467-1.78-7.624-4.944c-0.758-2.043-1.67-4.624-2.662-7.593c-7.131-21.497-17.843-63.707,3.694-73.988
					c18.786-8.973,41.771,20.767,53.138,46.646C204.504,311.815,205.552,314.464,206.472,317.03z"/>
				<path style="opacity:0.38;fill:#1A1A3F;" d="M206.472,317.03c0.977,2.735,0.372,5.773-1.64,7.863
					c-6.74,7.02-24.047,22.337-48.061,24.11c-3.353,0.254-6.467-1.78-7.624-4.944c-0.758-2.043-1.67-4.624-2.662-7.593
					c10.47-0.775,30.207-5.661,56.832-27.341C204.504,311.815,205.552,314.464,206.472,317.03z"/>
			</g>
			<g>
				<path style="fill:#545ED7;" d="M210.281,420.045c0,0-2.6,1.11-7.27,2.76c-15.04,5.31-51.54,16.24-91.6,13.77
					c-15.13-0.92-30.75-3.76-45.93-9.53c0,0-6.53-50.27-6.47-92.32c0.02-9.3,0.35-18.54,1.16-27.23c0.21-2.39,0.47-4.74,0.76-7.02
					c0.36-2.84,0.77-5.57,1.25-8.23c1.05-5.79,2.39-11.13,4.09-15.82c3.69-10.14,25.46-21.22,33.57-22.7
					c8.09-1.49,39.6,3.89,47.39,3.66c2.23-0.06,5.08,0.37,8.21,1.25c4.1,1.16,8.67,3.11,12.89,5.77
					c5.45,3.42,10.33,8.02,12.91,13.61c1.01,2.18,3.38,7.22,5.56,14.82c0.01,0,0.01,0,0.01,0c0.71,2.46,1.44,5.17,2.19,8.09
					c0.46,1.7,0.91,3.49,1.36,5.32c1.85,7.53,3.79,16.11,5.7,25.18C202.601,362.405,208.801,399.135,210.281,420.045z"/>
				<g>
					<path style="fill:#B3B3FF;" d="M196.062,331.427c-18.733,6.201-60.639,14.377-137.047,3.297
						c0.012-9.295,0.345-18.543,1.154-27.231c30.897,4.07,83.811,8.331,130.192-1.25
						C192.206,313.777,194.146,322.358,196.062,331.427z"/>
					<g>
						<path style="fill:#B3B3FF;" d="M189.004,300.923c-20.126,2.987-40.442,4.035-59.032,4.035
							c-30.349,0-56.128-2.797-69.041-4.487c0.357-2.833,0.774-5.57,1.25-8.224c20.316,2.666,73.1,8.081,124.622,0.583
							c0.012,0,0.012,0,0.012,0C187.517,295.294,188.255,298.008,189.004,300.923z"/>
					</g>
				</g>
				<path style="opacity:0.31;fill:#9BEFFA;" d="M210.281,420.045c0,0-2.6,1.11-7.27,2.76c-2.78-30.7-7.22-69.03-13.88-100
					c-6.78-31.55-14.66-48.93-20.8-58.4c5.45,3.42,10.33,8.02,12.91,13.61c1.01,2.18,3.38,7.22,5.56,14.82c0.01,0,0.01,0,0.01,0
					c0.71,2.46,1.44,5.17,2.19,8.09c0.46,1.7,0.91,3.49,1.36,5.32c1.85,7.53,3.79,16.11,5.7,25.18
					C202.601,362.405,208.801,399.135,210.281,420.045z"/>
				<path style="opacity:0.17;fill:#5B006B;" d="M138.231,281.845c-7.77,0.97-17.45-1.97-22.25,4.22c-1.72,2.22-2.24,5.13-2.68,7.9
					c-7.28,45.89-8.07,92.8-2.35,138.91c0.15,1.23,0.31,2.46,0.46,3.7c-15.13-0.92-30.75-3.76-45.93-9.53c0,0-6.53-50.27-6.47-92.32
					c0.02-9.3,0.35-18.54,1.16-27.23c0.21-2.39,0.47-4.74,0.76-7.02c0.36-2.84,0.77-5.57,1.25-8.23c1.05-5.79,2.39-11.13,4.09-15.82
					c3.69-10.14,25.46-21.22,33.57-22.7c8.09-1.49,39.6,3.89,47.39,3.66c2.23-0.06,5.08,0.37,8.21,1.25
					C155.681,269.145,149.331,280.455,138.231,281.845z"/>
			</g>
			<g>
				<path style="fill:#E0A26E;" d="M171.471,381.305c0.26,2.49-11.35,8.6-14.76,9.71c-3.42,1.11-34.56,22.77-54.93,24.9
					c-4,0.42-7.54,0.94-10.74,1.1c-16.4,0.81-24.24-7.92-42.62-89.41l34.1-12.3c3.1,15.86,5.72,33.42,9.85,46.15
					c2.36,7.25,5.2,12.93,8.9,15.84c10.21,8.02,34.59-11.26,37.48-12.56c2.89-1.31,1.38-12.38,5.29-12.4
					c3.9-0.02,4.08,10.01,3.66,11.02c-0.41,1.01,12.38-8.25,14.38-4.8c1.93,3.36-9.18,10.55-9.82,10.96
					c0.81-0.38,16.46-7.77,17.02-4.63c0.59,3.22-11.98,11.06-11.98,11.06s14.4-4.75,14.65-2.26c0.26,2.5-12.56,7.85-12.56,7.85
					S171.221,378.805,171.471,381.305z"/>
				<path style="opacity:0.17;fill:#C6123D;" d="M88.501,414.175c0.78,0.99,1.64,1.93,2.54,2.84c-16.4,0.81-24.24-7.92-42.62-89.41
					l34.1-12.3c3.1,15.86,5.72,33.42,9.85,46.15c-2.97,1.4-6.16,2.41-9.56,2.96c-1.98,0.32-4.12,0.54-5.65,1.84
					c-2.43,2.04-2.29,5.77-1.84,8.91c1.41,9.67,3.94,19.19,7.51,28.29C84.311,407.235,85.991,410.985,88.501,414.175z"/>
				<path style="fill:#3F3882;" d="M102.381,346.005c0.06,2.91-1.47,5.6-4.04,6.94c-6.78,3.55-21.38,9.91-38.67,9.57
					c-4.69-0.08-9.57-0.67-14.56-1.93c-3.26-0.82-5.57-3.74-5.66-7.1c-0.07-2.18-0.12-4.92-0.12-8.05
					c0.05-22.65,3.26-66.08,26.94-69.01c1.29-0.16,2.55-0.17,3.77-0.04c18.41,1.89,29.43,34.73,31.86,61.12
					C102.171,340.435,102.321,343.285,102.381,346.005z"/>
				<path style="opacity:0.38;fill:#1A1A3F;" d="M102.384,346.007c0.06,2.904-1.476,5.594-4.047,6.939
					c-8.617,4.522-29.885,13.568-53.224,7.641c-3.261-0.821-5.57-3.737-5.665-7.105c-0.071-2.178-0.119-4.915-0.119-8.046
					c10.176,2.583,30.444,4.201,62.567-7.926C102.17,340.437,102.325,343.281,102.384,346.007z"/>
				<path style="opacity:0.28;fill:#280249;" d="M57.811,324.415c-0.73,10.82-1.24,21.77,0.66,32.44c0.34,1.89,0.75,3.78,1.2,5.66
					c-4.69-0.08-9.57-0.67-14.56-1.93c-3.26-0.82-5.57-3.74-5.66-7.1c-0.07-2.18-0.12-4.92-0.12-8.05
					c0.05-22.65,3.26-66.08,26.94-69.01c1.29-0.16,2.55-0.17,3.77-0.04c-0.89,1.38-1.71,2.8-2.48,4.22
					C60.391,293.915,58.801,309.585,57.811,324.415z"/>
			</g>
		</g>
		<g>
			<g>
				<path style="fill:#FFD488;" d="M179.741,208.035c-1.59,8.76-7.25,9.34-7.25,9.34c9.82,5.41,5.86,18.99-1.68,20.97
					c-7.54,1.98-12.72-1.98-12.72-1.98c2.95,6.74-2.95,16.66-11.68,15.47c-8.73-1.19-9.92-10.12-9.92-10.12s-5.15,13.89-15.56,10.12
					c-1.75-0.63-3.14-1.52-4.25-2.58c-5.5-5.15-4.01-14.08-4.01-14.08c-4.78,8.53-22.59,12.49-30.15,3.37
					c-7.56-9.13-0.58-17.66-0.58-17.66c-4.56-1.98-8.92-7.34-8.72-16.25c0.2-8.91,8.13-12.41,8.13-12.41s-9.52,0.5-9.92-12.25
					c-0.4-12.75,11.51-15.82,11.51-15.82c-1.39-3.57-2.19-12.1,5.75-19.83c7.93-7.74,20.63-1.99,20.63-1.99s1.59-8.53,11.16-11.5
					c4.23-1.32,8.2-0.89,11.31-0.01c3.93,1.12,6.49,2.98,6.49,2.98c0.3-1.24,1.36-3.03,3.09-4.82c1.42-1.48,3.28-2.95,5.54-4.14
					c5.9-3.11,14.48-4.21,24.69,2.02c18.85,11.51,10.12,37.29-3.54,41.66c0,0,4.54,4.16,6.32,12.51c1.79,8.35-0.4,14.49-0.4,14.49
					S181.321,199.265,179.741,208.035z"/>
				<path style="opacity:0.17;fill:#C91157;" d="M114.831,152.875c-7.2-5.73-19.67-1.91-22.51,6.85
					c-2.83,8.76,4.9,19.12,14.11,18.98c2.63-0.04,5.29-0.78,7.86-0.22c2.12,0.46,3.96,1.78,5.52,3.28
					c10.63,10.19,9.77,27.32,6.46,41.67c-2.06,8.95-4.93,18-9.59,25.82c-5.5-5.15-4.01-14.08-4.01-14.08
					c-4.78,8.53-22.59,12.49-30.15,3.37c-7.56-9.13-0.58-17.66-0.58-17.66c-4.56-1.98-8.92-7.34-8.72-16.25
					c0.2-8.91,8.13-12.41,8.13-12.41s-9.52,0.5-9.92-12.25c-0.4-12.75,11.51-15.82,11.51-15.82c-1.39-3.57-2.19-12.1,5.75-19.83
					c7.93-7.74,20.63-1.99,20.63-1.99s1.59-8.53,11.16-11.5c4.23-1.32,8.2-0.89,11.31-0.01c-1.42,0.28-2.87,0.66-4.32,1.24
					C123.631,133.585,108.401,147.765,114.831,152.875z"/>
				<path style="opacity:0.17;fill:#C91157;" d="M146.911,124.845c-1.56,2.22-3.45,3.41-5.54,4.14
					C142.791,127.505,144.651,126.035,146.911,124.845z"/>
			</g>
			<g>
				<path style="fill:#E0A26E;" d="M128.111,274.445c-1.04-0.15-2.09-0.37-3.12-0.66c-13.72-3.74-25.96-18.08-25.59-21.95
					c0.4-4.17-0.59-28.58-0.59-28.58c12.49,21.8,47.4,15.88,47.4,16.88c0,0.32,0.18,2.34,0.44,5.08c0.55,5.97,1.48,15.34,1.75,17.92
					C148.791,266.905,143.041,276.625,128.111,274.445z"/>
				<path style="opacity:0.17;fill:#C6123D;" d="M146.651,245.215c-5.12,3.3-10.43,1.37-16.92,3.32c-9.64,2.9-7.5,16.19-4.74,25.25
					c-13.72-3.74-25.96-18.08-25.59-21.95c0.4-4.17-0.59-28.58-0.59-28.58c12.49,21.8,47.4,15.88,47.4,16.88
					C146.211,240.455,146.391,242.475,146.651,245.215z"/>
			</g>
			<g>
				<path style="fill:#E0A26E;" d="M173.286,206.514c-0.116,2.122-0.311,4.296-0.595,6.51c-0.399,3.157-1.112,6.049-2.09,8.675
					c-1.946,5.232-4.958,9.431-8.717,12.673c-9.666,8.377-24.294,10.474-38.609,7.814c-22.691-4.194-24.532-20.376-24.532-20.376
					c-11.998,6.405-19.212-9.851-14.729-14.674c4.493-4.803,11.119-0.18,11.119-0.18c7.594,3.288,1.602-23.449,1.602-23.449
					c23.236,1.405,29.762-24.884,29.762-24.884c18.155,19.339,41.035,9.249,41.035,9.249s0.997,2.314,2.174,6.396
					C171.644,181.007,174.081,192.579,173.286,206.514z"/>
				<path style="opacity:0.17;fill:#C6123D;" d="M158.913,234.91c1.025-0.347,2.022-0.523,2.972-0.538
					c-9.666,8.377-24.294,10.474-38.609,7.814c-22.691-4.194-24.532-20.376-24.532-20.376c-11.998,6.405-19.212-9.851-14.729-14.674
					c4.493-4.803,11.119-0.18,11.119-0.18c7.594,3.288,1.602-23.449,1.602-23.449c23.236,1.405,29.762-24.884,29.762-24.884
					c18.155,19.339,41.035,9.249,41.035,9.249s0.997,2.314,2.174,6.396c-4.176,2.138-9.23,3.159-13.646,3.481
					c-2.507,0.181-21.017-0.891-21.083-4.99c-0.251,6.145-7.423,9.131-11.824,13.463c-3.524,3.487-5.426,8.329-6.458,13.186
					c-1.851,8.661-1.138,18.101,3.306,25.77c4.444,7.659,13.003,11.852,21.819,12.769
					C150.074,238.813,153.452,236.798,158.913,234.91z"/>
				<path style="fill:#FE86AA;" d="M88.491,210.376c4.165-2.777,7.736,5.157,4.165,6.744
					C89.086,218.707,85.539,212.344,88.491,210.376z"/>
			</g>
			<g>
				<path style="fill:#CC6A76;" d="M150.16,179.284c0,0,1.081,15.5,7.93,26.554c0,0-4.566,2.884-10.333,2.043
					C147.757,207.88,146.916,186.613,150.16,179.284z"/>
				<g>
					<path style="fill:#FFD488;" d="M111.515,179.633c0.007,0.017,0.013,0.033,0.02,0.05c0.397,0.991,1.465,1.539,2.505,1.298
						c1.34-0.31,3.322-0.743,5.069-1.024c1.028-0.165,1.788-1.041,1.815-2.082c0.004-0.155,0.004-0.315,0-0.477
						c-0.033-1.296-1.194-2.269-2.477-2.086c-1.411,0.201-3.454,0.62-5.731,1.495C111.597,177.236,111.074,178.518,111.515,179.633z
						"/>
					<path style="fill:#FFD488;" d="M172.425,178.465c-0.004,0.016-0.008,0.032-0.013,0.048c-0.254,0.942-1.164,1.555-2.134,1.449
						c-1.251-0.137-3.096-0.316-4.712-0.382c-0.952-0.039-1.736-0.752-1.873-1.694c-0.02-0.14-0.038-0.285-0.052-0.433
						c-0.11-1.18,0.839-2.189,2.024-2.161c1.303,0.03,3.203,0.19,5.364,0.739C172.092,176.299,172.705,177.406,172.425,178.465z"/>
				</g>
				<path style="fill:#A54661;" d="M143.909,210.162c0,0-0.738,4.915-3.416,8.307c-1.488,1.88-3.558,3.285-6.439,3.106
					c-2.63-0.155-4.57-1.654-5.939-3.737c-2.856-4.261-3.356-10.938-2.702-13.199L143.909,210.162z"/>
				<path style="fill:#FE86AA;" d="M140.493,218.469c-1.488,1.88-3.558,3.285-6.439,3.106c-2.63-0.155-4.57-1.654-5.939-3.737
					C130.746,216.243,135.745,214.304,140.493,218.469z"/>
				<g style="opacity:0.19;">
					<ellipse style="fill:#B9308C;" cx="112.672" cy="215.99" rx="9.011" ry="8.591"/>
					<path style="fill:#B9308C;" d="M173.189,207.245c-0.153,2.116-0.382,4.287-0.698,6.501c-0.447,3.153-1.211,6.032-2.225,8.64
						c-0.24,0.022-0.491,0.033-0.742,0.033c-4.625,0-8.378-3.578-8.378-7.996s3.753-7.996,8.378-7.996
						C170.844,206.427,172.088,206.71,173.189,207.245z"/>
				</g>
				<path style="fill:#5B3546;" d="M118.56,198.452c-1.384,0-2.468-1.691-2.468-3.849s1.084-3.849,2.468-3.849
					c1.384,0,2.468,1.691,2.468,3.849S119.944,198.452,118.56,198.452z"/>
				<path style="fill:#5B3546;" d="M166.502,196.073c-1.384,0-2.468-1.691-2.468-3.85s1.085-3.849,2.468-3.849
					c1.384,0,2.468,1.691,2.468,3.849S167.885,196.073,166.502,196.073z"/>
			</g>
		</g>
	</g>
	<g>
		<g>
			<path style="fill:#89524C;" d="M686.86,231.845c0,0,14.01,16.12,2.65,29.89c-11.35,13.77-25.12,7.73-31.4,0.97
				c0,0-2.65,15.7-21.01,18.35c-18.36,2.66-25.6-10.62-26.09-17.15c0,0-21.01,18.36-37.43,2.9c-3.01-2.84-4.99-5.92-6.11-9.05
				c-5.01-13.96,6.78-29.02,18.42-28.63c0,0-14.49-2.87-14.97-18.35c-0.48-15.46,11.35-20.29,17.15-21.5c0,0,1.93-34.78,18.11-49.52
				c5.17-4.7,12.18-8.47,19.97-10.92c16.6-5.24,36.68-4.5,49.84,5.85c19.32,15.22,19.22,41.06,4.9,56.04c0,0,18.53-6.52,23.84,10.14
				C710.04,217.535,700.14,231.185,686.86,231.845z"/>
			<path style="opacity:0.28;fill:#280249;" d="M686.86,231.845c0,0,14.01,16.12,2.65,29.89c-11.35,13.77-25.12,7.73-31.4,0.97
				c0,0-2.65,15.7-21.01,18.35c-18.36,2.66-25.6-10.62-26.09-17.15c0,0-21.01,18.36-37.43,2.9c-3.01-2.84-4.99-5.92-6.11-9.05
				c7.58-6.59,16.98-10.98,26.73-13.43c-0.22-4.93,2.03-9.9,5.88-12.99c-6.78-5.26-10.96-13.7-11.03-22.27
				c-0.01-1.8,0.19-3.73,1.34-5.1c2.16-2.59,6.3-1.91,9.37-0.52c6.61,3,11.98,8.12,17.96,12.24c5.98,4.12,13.27,7.35,20.35,5.76
				c8.3-1.87,14.64-9.99,23.14-10.13c4.62-0.07,8.92,2.29,13.47,3.11c4.54,0.83,10.36-0.83,11.29-5.36c0.51-2.47-0.66-5-2.2-7
				c-4.55-5.93-12.76-8.77-20-6.94c9.66-12.98,17.96-29.75,12.09-44.83c-4.36-11.21-15.8-18.43-27.55-20.97
				c-7.87-1.7-15.04-1.46-22.16-0.49c16.6-5.24,36.68-4.5,49.84,5.85c19.32,15.22,19.22,41.06,4.9,56.04c0,0,18.53-6.52,23.84,10.14
				C710.04,217.535,700.14,231.185,686.86,231.845z"/>
		</g>
		<g>
			<g>
				<path style="fill:#CE8872;" d="M574.2,326.565c-10.04,15.31-29.98,50.69-46.51,48.97c-2.36-0.25-4.9-0.82-7.53-1.61
					c-15.77-4.79-34.68-17.83-37.06-18.6c-2.77-0.9-12.19-5.86-11.99-7.89c0.2-1.95,9.18,0.05,9.78,0.18
					c-0.6-0.26-10.36-4.39-10.17-6.36c0.2-1.97,11.33,1.65,11.88,1.83c-0.51-0.32-10.17-6.43-9.71-8.98
					c0.47-2.61,13.84,3.78,13.84,3.78s-9.61-6.11-7.99-8.91c1.62-2.8,12.01,4.71,11.67,3.89c-0.34-0.82-0.2-8.96,2.98-8.94
					c3.17,0.02,1.94,9,4.29,10.06c2.35,1.06,22.14,16.71,30.42,10.2c2.5-1.96,6.3-6.62,10.39-12.18
					c9.47-12.86,20.51-30.54,20.62-30.8L574.2,326.565z"/>
				<path style="opacity:0.17;fill:#84072A;" d="M574.2,326.565c-10.04,15.31-29.98,50.69-46.51,48.97
					c-2.36-0.25-4.9-0.82-7.53-1.61c6.42-4.41,12.42-9.25,16.9-15.57c3.78-5.31,6.33-12.13,4.37-18.35c-1-3.17-2.07-5.66-2.94-8
					c9.47-12.86,20.51-30.54,20.62-30.8L574.2,326.565z"/>
				<path style="fill:#E29C50;" d="M578.62,270.475l-8.02,68.41l-1.13,9.64c-5.63,0.91-13.53-6.04-19.54-14.3
					c-5.99-8.23-10.09-17.75-8.16-22.09c0.92-2.05,2.87-5.42,5.47-9.38c5.48-8.36,13.82-19.36,21.15-26.13
					C572.27,273.065,575.87,270.675,578.62,270.475z"/>
				<path style="opacity:0.29;fill:#775429;" d="M570.6,338.882l-1.13,9.642c-11.227,1.807-31.564-27.69-27.699-36.385
					c0.918-2.058,2.869-5.42,5.468-9.381C551.132,313.463,558.485,329.144,570.6,338.882z"/>
				<path style="opacity:0.17;fill:#C91157;" d="M578.62,270.475l-8.02,68.41l-1.13,9.64c-5.63,0.91-13.53-6.04-19.54-14.3
					c1.97-2.53,3.79-5.16,5.23-8.01c2.5-4.94,3.82-10.39,5.11-15.77c1.8-7.49,3.6-14.98,5.4-22.47c0.89-3.68,2.22-7.49,2.71-11.24
					c0-0.04,0.01-0.07,0.01-0.11C572.27,273.065,575.87,270.675,578.62,270.475z"/>
			</g>
			<g>
				<g>
					<path style="fill:#FFD488;" d="M698.68,382.065c-0.5,21.53-1.68,38.67-1.68,38.67c-19.84,8.67-44.64,10.87-67.29,10.38
						c-34.16-0.72-63.43-7.55-63.43-7.55c-2.03-36.42-0.96-67.37,1.26-91.72c3.36-37.01,9.35-58.77,11.08-61.37
						c0.45-0.67,1.34-1.72,2.67-2.99c3.33-3.24,9.42-8,18.02-12.15c0.98-0.48,1.99-0.94,3.04-1.39c0.6-0.26,1.21-0.52,1.84-0.77
						c9.09-3.69,20.44-6.47,33.88-6.47c9.59,0,17.47,1.16,23.93,2.93h0.01c0.07,0.02,0.15,0.04,0.22,0.07
						c7.96,2.21,13.73,5.36,17.8,8.4c0.01,0.01,0.01,0.01,0.01,0.01c6.5,4.84,8.71,9.38,8.71,9.38
						C698.55,298.925,699.46,348.345,698.68,382.065z"/>
					<path style="opacity:0.53;fill:#B9761B;" d="M662.229,249.707c-0.145,6.038-1.584,12.656-6.415,16.618
						c-10.589,8.695-32.182,13.42-44.095,5.797c-7.439-4.763-9.14-12.802-9.372-18.173c9.381-4.068,21.362-7.246,35.718-7.246
						c9.594,0,17.478,1.159,23.931,2.937h0.01C662.084,249.659,662.162,249.678,662.229,249.707z"/>
					<path style="opacity:0.17;fill:#C91157;" d="M698.68,382.065c-0.5,21.53-1.68,38.67-1.68,38.67
						c-19.84,8.67-44.64,10.87-67.29,10.38c1.3-17.16,3.81-34.39,4.9-51.55c1.94-30.53-0.63-61.14-3.21-91.62
						c-0.37-4.4-0.91-9.18-3.99-12.33c-2.97-3.03-7.5-3.75-11.33-5.59c-5.89-2.84-9.72-9.32-11.89-16.85
						c9.09-3.69,20.44-6.47,33.88-6.47c9.59,0,17.47,1.16,23.93,2.93h0.01c0.07,0.02,0.15,0.04,0.22,0.07
						c7.96,2.21,13.73,5.36,17.8,8.4c0.01,0.01,0.01,0.01,0.01,0.01c6.5,4.84,8.71,9.38,8.71,9.38
						C698.55,298.925,699.46,348.345,698.68,382.065z"/>
				</g>
				<g>
					<path style="fill:#4DBAAD;" d="M698.68,382.065c-0.5,21.53-1.68,38.67-1.68,38.67c-18.28,7.99-40.77,10.49-61.91,10.45
						c-36.41-0.06-68.81-7.62-68.81-7.62c-2.03-36.42-0.96-67.37,1.26-91.72c0.12-0.03,0.24-0.04,0.36-0.06
						c0,0,35.97,8.93,73.67,6.14c7.55-0.56,15.16-1.58,22.58-3.25c0,0-0.52,46.7,17.61,50.89
						C690.31,387.535,695.53,385.155,698.68,382.065z"/>
					<path style="opacity:0.38;fill:#1A1A3F;" d="M591.047,342.731c0,0,27.052,2.254,43.799,0.966c0,0,5.153,34.137-25.442,33.171
						C584.61,376.085,591.047,342.731,591.047,342.731z"/>
					<path style="opacity:0.17;fill:#5B006B;" d="M698.68,382.065c-0.5,21.53-1.68,38.67-1.68,38.67
						c-18.28,7.99-40.77,10.49-61.91,10.45c4.36-29.69,7.76-59.39,6.42-89.32c-0.06-1.3-0.04-2.62,0.06-3.94
						c7.55-0.56,15.16-1.58,22.58-3.25c0,0-0.52,46.7,17.61,50.89C690.31,387.535,695.53,385.155,698.68,382.065z"/>
					<g>
						<path style="fill:#5E5E50;" d="M649.721,350.064c-2.523-0.112-4.591-2.099-5.396-5.186c-0.87-3.336-0.101-7.736,3.053-9.688
							c0.533-0.33,0.867-0.879,0.893-1.469c0.036-0.801-0.474-1.537-1.239-1.79c-3.304-1.092-4.402-1.862-4.349-3.054l0.138-3.116
							c0.098-2.199,1.825-3.93,4.018-4.025c2.796-0.122,7.226-0.121,12.456,0.577c2.133,0.285,3.73,2.202,3.634,4.365l-0.028,0.639
							c-0.079,1.788-1.284,3.335-2.997,3.85l-2.447,0.737c-0.732,0.221-1.247,0.882-1.28,1.644l-0.038,0.862
							c-0.025,0.561,0.229,1.108,0.697,1.5c2.681,2.247,3.789,6.29,2.578,9.404C658.673,347.216,656.43,350.362,649.721,350.064z
							 M645.116,328.545c0.306,0.185,1.038,0.551,2.675,1.092c1.787,0.592,2.977,2.315,2.893,4.19
							c-0.062,1.388-0.823,2.665-2.034,3.414c-2.136,1.324-2.618,4.608-1.987,7.026c0.201,0.769,1.022,3.287,3.166,3.382
							c3.857,0.171,6.461-0.97,7.334-3.213c0.826-2.122-0.017-5.118-1.878-6.678c-1.049-0.879-1.617-2.14-1.559-3.458l0.038-0.862
							c0.079-1.786,1.284-3.333,2.997-3.85l2.447-0.737c0.732-0.22,1.246-0.881,1.28-1.644l0.028-0.639
							c0.041-0.925-0.636-1.743-1.541-1.864c-5.054-0.675-9.332-0.676-12.031-0.558c-0.933,0.041-1.668,0.78-1.71,1.719
							L645.116,328.545z"/>
					</g>
					<g>
						<path style="fill:#5E5E50;" d="M579.345,346.776c-2.526,0-4.68-1.894-5.621-4.941c-1.017-3.294-0.444-7.724,2.62-9.814
							c0.518-0.354,0.827-0.917,0.827-1.507c0-0.802-0.542-1.514-1.317-1.733c-3.349-0.944-4.48-1.665-4.48-2.858v-3.119
							c0-2.201,1.649-4.007,3.835-4.199c2.788-0.246,7.214-0.442,12.469,0.024c2.144,0.19,3.824,2.034,3.824,4.199v0.64
							c0,1.79-1.135,3.388-2.823,3.979l-2.412,0.844c-0.721,0.253-1.206,0.936-1.206,1.699v0.862c0,0.561,0.278,1.096,0.763,1.468
							c2.778,2.126,4.064,6.116,2.992,9.28C588.162,343.534,586.061,346.776,579.345,346.776z M573.79,325.483
							c0.314,0.172,1.061,0.505,2.721,0.973c1.812,0.512,3.076,2.181,3.076,4.058c0,1.389-0.703,2.698-1.881,3.501
							c-2.075,1.417-2.411,4.719-1.674,7.107c0.235,0.759,1.167,3.238,3.313,3.238c3.86,0,6.412-1.256,7.184-3.535
							c0.731-2.157-0.244-5.112-2.172-6.589c-1.087-0.832-1.711-2.066-1.711-3.385v-0.862c0-1.788,1.135-3.387,2.823-3.979
							l2.412-0.844c0.721-0.252,1.206-0.935,1.206-1.699v-0.64c0-0.926-0.712-1.713-1.622-1.794
							c-5.079-0.45-9.353-0.261-12.043-0.024c-0.931,0.082-1.632,0.853-1.632,1.794V325.483z"/>
					</g>
					<g>
						<path style="fill:#EEEEEE;" d="M586.216,343.697c0,3.024-2.451,5.475-5.475,5.475s-5.475-2.451-5.475-5.475
							c0-3.024,2.451-5.475,5.475-5.475S586.216,340.673,586.216,343.697z"/>
						<path style="fill:#EEEEEE;" d="M657.918,346.46c0,3.024-2.451,5.475-5.475,5.475c-3.024,0-5.475-2.451-5.475-5.475
							c0-3.024,2.451-5.475,5.475-5.475C655.466,340.985,657.918,343.436,657.918,346.46z"/>
					</g>
				</g>
				<g>
					<path style="fill:#4DBAAD;" d="M598.76,256.565c-7.58,27.41-7.92,66.24-7.92,66.24h-16.52c0.26-21.12,3.86-40.87,6.78-54.11
						c0.48-2.21,1.65-4.19,3.35-5.67c2.26-1.96,5.18-4.19,8.75-6.41c1.01-0.64,2.08-1.27,3.19-1.9
						C597.66,254.005,599.15,255.165,598.76,256.565z"/>
					<path style="opacity:0.17;fill:#5B006B;" d="M598.76,256.565c-7.58,27.41-7.92,66.24-7.92,66.24h-10.01
						c0.32-2.34,0.65-4.66,0.99-6.98c2.75-18.91,4.51-39.34,10.78-57.49c0.19-0.55,0.39-1.12,0.6-1.72c1.01-0.64,2.08-1.27,3.19-1.9
						C597.66,254.005,599.15,255.165,598.76,256.565z"/>
					<path style="fill:#4DBAAD;" d="M676.99,257.005c-15.12,10.98-16.43,68.71-16.43,68.71h-16.5c2.14-45.31,9.1-65.47,15.81-75.36
						c0.96-1.41,2.73-2.01,4.36-1.51c2.04,0.63,4.93,1.55,7.52,2.5c2.06,0.76,3.94,1.53,5.05,2.18
						C678.09,254.285,678.2,256.125,676.99,257.005z"/>
					<path style="opacity:0.17;fill:#5B006B;" d="M676.99,257.005c-15.12,10.98-16.43,68.71-16.43,68.71h-6.38
						c-0.39-9.21,0.43-18.56,1.53-27.72c1.34-11.11,3.12-22.31,7.55-32.58c2.14-4.97,5.05-9.71,8.49-14.07
						c2.06,0.76,3.94,1.53,5.05,2.18C678.09,254.285,678.2,256.125,676.99,257.005z"/>
				</g>
			</g>
			<g>
				<path style="fill:#CE8872;" d="M709.25,342.735c-1.45,14.57-19.56,67.06-35.5,83.73c-15.95,16.66-25.15,26.21-29.51,30.04
					c-4.28,3.77-6.48,1.6-5.03-0.57c1.45-2.18,3.18-5.32,3.18-5.32c-5.71,5.58-9.08,6.39-10.51,5.67c-0.8-0.39-0.99-1.26-0.64-2.04
					c0.93-2.11,5.72-8.07,6.02-8.44c-0.31,0.24-6.57,5.32-8.92,6.26c-2.42,0.97-5.32,0-3.63-3.14c1.58-2.93,6.96-7.96,7.66-8.61
					c-0.66,0.54-5.27,4.24-8.62,4.02c-3.63-0.24-5.32-2.17-2.66-4.35c2.66-2.17,8.13-6.52,8.13-6.52c-4.19-1.45-7.89-5.55-6.44-7.48
					c1.45-1.94,6.28,0.48,7.97,1.2c1.69,0.73,9.42-1.2,23.43-23.91c9.16-14.84,14.7-34.83,17.45-46.9
					c1.45-6.4,2.12-10.58,2.12-10.58L709.25,342.735z"/>
				<path style="opacity:0.17;fill:#84072A;" d="M709.25,342.735c-1.45,14.57-19.56,67.06-35.5,83.73
					c-15.95,16.66-25.15,26.21-29.51,30.04c-4.28,3.77-6.48,1.6-5.03-0.57c1.45-2.18,3.18-5.32,3.18-5.32
					c-5.71,5.58-9.08,6.39-10.51,5.67c7.29-7.11,14.69-14.21,20.95-22.02c7.55-9.42,43.85-70.87,30.37-77.4
					c-2.89-1.4-7.61-0.48-11.57-0.49c1.45-6.4,2.12-10.58,2.12-10.58L709.25,342.735z"/>
				<path style="fill:#E29C50;" d="M718.9,340.145c0.01,1.81-0.89,3.5-2.38,4.51c-3.08,2.06-9.31,5.15-19.82,5.93
					c-6.58,0.51-14.85,0.1-25.07-2.03c-2.36-0.49-4.1-2.51-4.27-4.91c-0.16-2.29-0.36-5.45-0.48-9.19
					c-0.67-18.45,0.15-50.95,12.84-62.2c2.58-2.28,5.64-3.69,9.28-3.93c16.56-1.09,27.93,28.13,29.67,63.37
					C718.81,334.475,718.88,337.295,718.9,340.145z"/>
				<path style="opacity:0.37;fill:#775429;" d="M716.547,340.148c0.01,1.807-0.889,3.497-2.386,4.502
					c-5.005,3.353-18.366,9.439-44.887,3.903c-2.357-0.493-4.096-2.512-4.27-4.908c-0.164-2.29-0.357-5.449-0.483-9.188
					c8.782,2.193,26.936,4.647,51.795-2.763C716.451,334.477,716.528,337.298,716.547,340.148z"/>
				<path style="opacity:0.17;fill:#C91157;" d="M718.9,340.145c0.01,1.81-0.89,3.5-2.38,4.51c-3.08,2.06-9.31,5.15-19.82,5.93
					c2.48-22.25,5.68-45.21-3.77-65.19c-3.07-6.5-7.31-11.13-13.21-13.14c2.58-2.28,5.64-3.69,9.28-3.93
					c16.56-1.09,27.93,28.13,29.67,63.37C718.81,334.475,718.88,337.295,718.9,340.145z"/>
			</g>
		</g>
		<g>
			<g>
				<path style="fill:#CE8872;" d="M658.84,221.645c-1.93,7.97-1.21,35.74-4.83,38.64c-4.56,3.65-12.19,9.31-24.7,9.53
					c-0.74,0.02-1.5,0.01-2.28-0.02c-2.28-0.07-4.72-0.33-7.32-0.81c-12.98-2.39-13.04-12.8-11.84-18.84
					c0.64-3.2,1.28-9.52,1.74-14.76c0.41-4.64,0.68-8.43,0.68-8.43c7.11,2.48,13.92,3.23,20.07,3.01
					C646.99,229.375,658.84,221.645,658.84,221.645z"/>
				<path style="opacity:0.17;fill:#84072A;" d="M658.84,221.645c-1.93,7.97-1.21,35.74-4.83,38.64c-4.56,3.65-12.19,9.31-24.7,9.53
					c-0.74,0.02-1.5,0.01-2.28-0.02c3.01-10.07,4.42-20.63,4.11-31.13c-0.09-3-0.47-5.88-0.78-8.7
					C646.99,229.375,658.84,221.645,658.84,221.645z"/>
			</g>
			<g>
				<path style="fill:#CE8872;" d="M590.966,204.491c0,0-6.28,1.932-7.488-4.589s1.691-14.669,7.488-11.441
					C590.966,188.462,590.242,197.477,590.966,204.491z"/>
				<path style="fill:#CE8872;" d="M665.12,212.845c0,0-2.46,14.65-23.51,17.97c-9.19,1.45-18.58,1.44-26.78-0.49
					c-10.46-2.44-18.98-8-22.69-17.59c-0.16-0.41-0.31-0.81-0.45-1.23c-1.87-5.61-2.65-11.49-2.6-17.18
					c0.11-12.67,4.3-24.48,9.53-30.65c3.66-4.33,10.14-8.49,17.14-11.79c7.45-3.52,15.49-6.06,21.34-6.81c0,0-0.24,7.24,6.28,13.04
					c6.52,5.8,13.77,1.21,13.77,1.21s-3.38,10.39-0.73,25.12c2.66,14.73,8.46,15.22,12.32,12.08c0,0,6.88-5.9,11.6,0
					C685.17,202.555,677.2,215.905,665.12,212.845z"/>
				<path style="opacity:0.17;fill:#84072A;" d="M665.12,212.845c0,0-2.46,14.65-23.51,17.97c-9.19,1.45-18.58,1.44-26.78-0.49
					c1.95-0.28,3.87-0.71,5.74-1.38c10.19-3.63,17.29-14.52,16.5-25.3c-0.65-8.87-5.94-17.95-2.45-26.12
					c-4.58,1.56-8.68-3.68-9.59-8.43c-1.36-7.01-0.83-14.09-8.68-17.01c-0.2-0.07-0.39-0.14-0.59-0.2
					c7.45-3.52,15.49-6.06,21.34-6.81c0,0-0.24,7.24,6.28,13.04c6.52,5.8,13.77,1.21,13.77,1.21s-3.38,10.39-0.73,25.12
					c2.66,14.73,8.46,15.22,12.32,12.08c0,0,6.88-5.9,11.6,0C685.17,202.555,677.2,215.905,665.12,212.845z"/>
				<path style="opacity:0.37;fill:#B7325E;" d="M675.2,199.147c3.078,2.462-2.462,9.541-5.54,7.695
					C666.582,204.995,672.122,196.684,675.2,199.147z"/>
			</g>
			<g>
				<path style="fill:#B24B62;" d="M619.58,176.715c0,0,0.644,16.585-2.254,24.154c0,0-7.407-0.644-12.238-3.542
					c0,0,2.415-0.483,5.153-2.093C612.978,193.622,618.775,179.452,619.58,176.715z"/>
				<g>
					<path style="fill:#663935;" d="M605.707,172.362c0.014-0.18,0.024-0.364,0.028-0.55c0.02-1.145-0.929-2.074-2.074-2.087
						c-1.796-0.02-4.768,0.08-7.772,0.759c-1.008,0.228-1.697,1.176-1.612,2.205c0.003,0.031,0.005,0.061,0.008,0.092
						c0.102,1.127,1.111,1.951,2.24,1.871c1.922-0.135,4.998-0.331,7.129-0.371C604.729,174.26,605.621,173.433,605.707,172.362z"/>
					<path style="fill:#663935;" d="M639.893,175.365c0.02-0.179,0.044-0.362,0.076-0.546c0.195-1.128,1.301-1.863,2.428-1.661
						c1.768,0.317,4.669,0.972,7.492,2.202c0.947,0.413,1.447,1.473,1.17,2.469c-0.008,0.029-0.016,0.059-0.025,0.089
						c-0.312,1.088-1.457,1.708-2.552,1.418c-1.863-0.492-4.847-1.262-6.933-1.701C640.498,177.413,639.777,176.433,639.893,175.365
						z"/>
				</g>
				<g style="opacity:0.35;">
					<ellipse style="fill:#B7325E;" cx="645.151" cy="209.805" rx="10.628" ry="9.903"/>
					<path style="fill:#B7325E;" d="M600.551,203.544c0,4.638-3.642,8.483-8.415,9.188c-0.155-0.406-0.309-0.812-0.444-1.227
						c-1.874-5.613-2.647-11.488-2.599-17.178c0.473-0.068,0.966-0.097,1.459-0.097
						C596.077,194.231,600.551,198.395,600.551,203.544z"/>
				</g>
				<path style="fill:#A33459;" d="M630.057,212.646c-0.821,1.459-2.116,2.676-4.068,3.362c-3.362,1.188-6.077,0.213-8.145-1.459
					c-2.985-2.396-4.609-6.232-4.898-7.082c0,0,12.077-2.898,17.709-6.599C630.656,200.868,632.714,207.979,630.057,212.646z"/>
				<path style="fill:#FE86AA;" d="M630.057,212.646c-0.821,1.459-2.116,2.676-4.068,3.362c-3.362,1.188-6.077,0.213-8.145-1.459
					C619.825,212.858,624.472,209.863,630.057,212.646z"/>
				<path style="fill:#5B3546;" d="M598.615,187.89c-1.3,0-2.318-1.514-2.318-3.446c0-1.932,1.018-3.446,2.318-3.446
					c1.3,0,2.319,1.514,2.319,3.446C600.934,186.376,599.915,187.89,598.615,187.89z"/>
				<path style="fill:#5B3546;" d="M643.38,189.822c-1.3,0-2.318-1.514-2.318-3.446c0-1.932,1.018-3.446,2.318-3.446
					c1.3,0,2.319,1.514,2.319,3.446C645.699,188.309,644.68,189.822,643.38,189.822z"/>
			</g>
		</g>
	</g>
	<g>
		<path style="fill:#71FFEA;" d="M93.242,31.616c25.749,0,46.622,17.341,46.622,38.732c0,12.187-6.782,23.054-17.375,30.154
			c1.562,6.493,5.409,16.401,14.778,21.843c0,0-19.233-3.095-26.551-16.089c-5.398,1.815-11.293,2.823-17.475,2.823
			c-25.749,0-46.622-17.341-46.622-38.731C46.62,48.956,67.493,31.616,93.242,31.616z"/>
		<text transform="matrix(1 0 0 1 69.0539 86.5946)" style="fill:#2B2B60; font-family:'Amatic-Bold'; font-size:39.9035px;">HELLO</text>
	</g>
	<g>
		<path style="fill:#7182FF;" d="M330.463,33.132c26.347,0,47.706,17.744,47.706,39.632c0,12.471-6.94,23.59-17.779,30.855
			c1.598,6.645,5.535,16.782,15.122,22.351c0,0-19.681-3.167-27.168-16.463c-5.524,1.857-11.556,2.889-17.881,2.889
			c-26.348,0-47.707-17.744-47.707-39.632C282.757,50.876,304.115,33.132,330.463,33.132z"/>
		<text transform="matrix(1 0 0 1 298.8813 87.4697)" style="fill:#2B2B60; font-family:'Amatic-Bold'; font-size:32.5816px;">NÁMASTE</text>
	</g>
	<g>
		<path style="fill:#FF6CEA;" d="M546.815,38.448c27.328,0,49.481,18.404,49.481,41.107c0,12.935-7.198,24.468-18.44,32.003
			c1.658,6.892,5.741,17.406,15.685,23.182c0,0-20.413-3.285-28.179-17.075c-5.729,1.926-11.986,2.997-18.546,2.997
			c-27.328,0-49.481-18.404-49.481-41.107C497.333,56.852,519.487,38.448,546.815,38.448z"/>
		<text transform="matrix(1 0 0 1 523.142 96.7984)" style="fill:#2B2B60; font-family:'Amatic-Bold'; font-size:42.3507px;">HOLA</text>
	</g>
</g>
</svg>
